<svg width="24" height="24" fill="none" xmlns="http://www.w3.org/2000/svg"><g clip-path="url(#a)" fill="#31BEF4"><path d="M18.966 14.867c-.492-.512-1.084-.785-1.712-.785-.623 0-1.221.268-1.733.78l-1.6 1.596c-.132-.071-.264-.137-.39-.203a6.43 6.43 0 0 1-.502-.268c-1.5-.953-2.862-2.194-4.169-3.8-.633-.8-1.058-1.473-1.367-2.157.415-.38.8-.775 1.175-1.155.142-.142.284-.289.425-.43 1.064-1.064 1.064-2.442 0-3.506L7.71 3.556a19.364 19.364 0 0 1-.47-.481 23.922 23.922 0 0 0-.953-.942c-.491-.486-1.079-.745-1.697-.745-.618 0-1.215.259-1.722.745l-.01.01L1.136 3.88a3.706 3.706 0 0 0-1.1 2.356c-.121 1.479.315 2.857.649 3.758.82 2.214 2.046 4.265 3.875 6.464 2.218 2.649 4.888 4.74 7.937 6.215 1.165.552 2.72 1.205 4.458 1.317.106.005.218.01.319.01 1.17 0 2.153-.42 2.923-1.256.005-.01.015-.015.02-.026.263-.319.567-.607.886-.916.218-.208.441-.426.659-.654.501-.522.765-1.13.765-1.752 0-.629-.269-1.231-.78-1.738l-2.781-2.79Zm1.813 5.334c-.005 0-.005.005 0 0-.197.213-.4.405-.618.618-.33.314-.663.643-.978 1.013-.511.547-1.114.805-1.904.805-.076 0-.157 0-.233-.005-1.505-.096-2.902-.684-3.951-1.185-2.867-1.388-5.385-3.358-7.477-5.855-1.727-2.082-2.882-4.007-3.647-6.074-.47-1.261-.643-2.244-.567-3.17a2.32 2.32 0 0 1 .7-1.505L3.83 3.115c.249-.233.512-.36.77-.36.32 0 .578.193.74.355l.015.016c.31.288.603.587.912.906.157.162.319.324.481.492l1.383 1.382c.537.537.537 1.034 0 1.57-.147.148-.289.295-.436.436-.425.436-.83.841-1.271 1.236-.01.01-.02.016-.025.026-.436.435-.355.86-.264 1.15l.015.045c.36.871.867 1.692 1.636 2.67l.006.005c1.398 1.722 2.872 3.064 4.498 4.092.207.132.42.239.623.34.182.091.354.177.501.268.02.01.04.026.06.036.173.086.335.126.502.126.42 0 .684-.263.77-.35l1.733-1.732c.172-.172.445-.38.765-.38.314 0 .572.198.729.37l.01.01 2.791 2.792c.522.516.522 1.048.005 1.585ZM12.97 5.71a6.423 6.423 0 0 1 3.494 1.812 6.457 6.457 0 0 1 1.814 3.496.68.68 0 0 0 .673.567c.04 0 .076-.005.117-.01a.685.685 0 0 0 .562-.79 7.813 7.813 0 0 0-2.193-4.23 7.813 7.813 0 0 0-4.23-2.193.687.687 0 0 0-.79.557c-.066.37.177.73.552.79Zm11.002 4.877a12.853 12.853 0 0 0-3.611-6.965A12.853 12.853 0 0 0 13.396.011a.681.681 0 0 0-.785.557.687.687 0 0 0 .562.79c2.36.4 4.513 1.52 6.225 3.227a11.475 11.475 0 0 1 3.227 6.225.68.68 0 0 0 .674.567c.04 0 .076-.005.116-.01a.671.671 0 0 0 .557-.78Z"/></g><defs><clipPath id="a"><path fill="#fff" d="M0 0h24v24H0z"/></clipPath></defs></svg>