<svg width="45" height="45" fill="none" xmlns="http://www.w3.org/2000/svg"><g clip-path="url(#a)" fill="#212D55"><path d="M24.745 10.919h-8.046V34.08h2.637v-7.34h5.409c4.287 0 7.774-3.488 7.774-7.775v-.27c0-4.287-3.487-7.775-7.774-7.775Zm5.138 8.045a5.144 5.144 0 0 1-5.138 5.138h-5.41V13.555h5.41a5.144 5.144 0 0 1 5.138 5.138v.271Z"/><path d="M38.41 6.59C34.16 2.34 28.51 0 22.5 0S10.84 2.34 6.59 6.59 0 16.49 0 22.5s2.34 11.66 6.59 15.91S16.49 45 22.5 45s11.66-2.34 15.91-6.59S45 28.51 45 22.5s-2.34-11.66-6.59-15.91Zm-1.864 29.955A19.734 19.734 0 0 1 22.5 42.363a19.733 19.733 0 0 1-14.045-5.818A19.733 19.733 0 0 1 2.637 22.5 19.734 19.734 0 0 1 8.455 8.454 19.734 19.734 0 0 1 22.5 2.637a19.734 19.734 0 0 1 14.045 5.817A19.734 19.734 0 0 1 42.363 22.5a19.734 19.734 0 0 1-5.818 14.045Z"/></g><defs><clipPath id="a"><path fill="#fff" d="M0 0h45v45H0z"/></clipPath></defs></svg>