<svg width="45" height="45" fill="none" xmlns="http://www.w3.org/2000/svg"><g clip-path="url(#a)"><path d="M10.072 44.09a2.393 2.393 0 0 1-2.33-2.925l2.894-12.752-9.818-8.61a2.39 2.39 0 0 1-.7-2.541 2.391 2.391 0 0 1 2.056-1.645l12.99-1.18L20.3 2.42a2.391 2.391 0 0 1 4.4-.002l5.135 12.02 12.988 1.18a2.388 2.388 0 0 1 2.06 1.645 2.39 2.39 0 0 1-.7 2.54l-9.818 8.609 2.895 12.752a2.39 2.39 0 0 1-3.559 2.584L22.5 37.053 11.298 43.75c-.378.224-.8.34-1.226.34ZM22.5 34.17c.426 0 .847.113 1.226.338l10.572 6.323-2.733-12.036a2.391 2.391 0 0 1 .758-2.33l9.27-8.13L29.33 17.22a2.389 2.389 0 0 1-1.988-1.45L22.5 4.43l-4.847 11.344a2.382 2.382 0 0 1-1.982 1.444L3.404 18.33l9.27 8.13c.664.581.955 1.474.758 2.332l-2.73 12.036 10.571-6.32c.38-.226.801-.34 1.227-.34Zm-7.435-19.5-.002.004.002-.004Zm14.866-.005.002.004-.002-.004Z" fill="#212D55"/></g><defs><clipPath id="a"><path fill="#fff" d="M0 0h45v45H0z"/></clipPath></defs></svg>