<svg width="45" height="45" fill="none" xmlns="http://www.w3.org/2000/svg"><g clip-path="url(#a)" fill="#212D55"><path d="M44.25 43.5h-4.5V18.75A.75.75 0 0 0 39 18H28.5V.75a.75.75 0 0 0-.75-.75H8.25a.75.75 0 0 0-.75.75V43.5H.75a.75.75 0 0 0 0 1.5h43.5a.75.75 0 0 0 0-1.5Zm-28.5 0h-3v-6.75a.75.75 0 0 1 .75-.75H15a.75.75 0 0 1 .75.75v6.75Zm3-24.75V43.5h-1.5v-6.75A2.25 2.25 0 0 0 15 34.5h-1.5a2.25 2.25 0 0 0-2.25 2.25v6.75H9v-42h18V18h-7.5a.75.75 0 0 0-.75.75Zm19.5 24.75h-18v-24h18v24Z"/><path d="M24 10.5h-4.5a.75.75 0 0 0-.75.75v4.5c0 .414.336.75.75.75H24a.75.75 0 0 0 .75-.75v-4.5a.75.75 0 0 0-.75-.75Zm-.75 4.5h-3v-3h3v3ZM24 3h-4.5a.75.75 0 0 0-.75.75v4.5c0 .414.336.75.75.75H24a.75.75 0 0 0 .75-.75v-4.5A.75.75 0 0 0 24 3Zm-.75 4.5h-3v-3h3v3Zm-6.75 3H12a.75.75 0 0 0-.75.75v4.5c0 .414.336.75.75.75h4.5a.75.75 0 0 0 .75-.75v-4.5a.75.75 0 0 0-.75-.75Zm-.75 4.5h-3v-3h3v3Zm.75-12H12a.75.75 0 0 0-.75.75v4.5c0 .414.336.75.75.75h4.5a.75.75 0 0 0 .75-.75v-4.5A.75.75 0 0 0 16.5 3Zm-.75 4.5h-3v-3h3v3ZM16.5 18H12a.75.75 0 0 0-.75.75v4.5c0 .414.336.75.75.75h4.5a.75.75 0 0 0 .75-.75v-4.5a.75.75 0 0 0-.75-.75Zm-.75 4.5h-3v-3h3v3Zm.75 3H12a.75.75 0 0 0-.75.75v4.5c0 .414.336.75.75.75h4.5a.75.75 0 0 0 .75-.75v-4.5a.75.75 0 0 0-.75-.75Zm-.75 4.5h-3v-3h3v3Zm15 4.5h4.5a.75.75 0 0 0 .75-.75v-4.5a.75.75 0 0 0-.75-.75h-4.5a.75.75 0 0 0-.75.75v4.5c0 .414.336.75.75.75Zm.75-4.5h3v3h-3v-3Zm-.75-3h4.5a.75.75 0 0 0 .75-.75v-4.5a.75.75 0 0 0-.75-.75h-4.5a.75.75 0 0 0-.75.75v4.5c0 .414.336.75.75.75Zm.75-4.5h3v3h-3v-3ZM30.75 42h4.5a.75.75 0 0 0 .75-.75v-4.5a.75.75 0 0 0-.75-.75h-4.5a.75.75 0 0 0-.75.75v4.5c0 .414.336.75.75.75Zm.75-4.5h3v3h-3v-3Zm-8.25-3h4.5a.75.75 0 0 0 .75-.75v-4.5a.75.75 0 0 0-.75-.75h-4.5a.75.75 0 0 0-.75.75v4.5c0 .414.336.75.75.75ZM24 30h3v3h-3v-3Zm-.75-3h4.5a.75.75 0 0 0 .75-.75v-4.5a.75.75 0 0 0-.75-.75h-4.5a.75.75 0 0 0-.75.75v4.5c0 .414.336.75.75.75Zm.75-4.5h3v3h-3v-3ZM23.25 42h4.5a.75.75 0 0 0 .75-.75v-4.5a.75.75 0 0 0-.75-.75h-4.5a.75.75 0 0 0-.75.75v4.5c0 .414.336.75.75.75Zm.75-4.5h3v3h-3v-3Z"/></g><defs><clipPath id="a"><path fill="#fff" d="M0 0h45v45H0z"/></clipPath></defs></svg>