<svg width="45" height="45" fill="none" xmlns="http://www.w3.org/2000/svg"><g clip-path="url(#a)" fill="#212D55"><path d="M.75 45.087h36a.75.75 0 0 0 .75-.75v-6.75h5.25a.75.75 0 0 0 .75-.75v-7.5a.75.75 0 0 0-.75-.75H37.5v-6.75a.75.75 0 0 0-.75-.75h-1.376a1.735 1.735 0 0 0-.307-1.404l-3.389-4.518 1.565-1.174a2.593 2.593 0 0 0 1.035-2.222l-.076-1.35c-.02-.367.144-.719.437-.939l1.565-1.173.658.877a.75.75 0 0 0 1.05.15L44.1 4.692a2.25 2.25 0 0 0 .45-3.15l-.417-.556a2.252 2.252 0 0 0-3.15-.449L34.796 5.18a.75.75 0 0 0-.15 1.05l.658.878-1.565 1.174a2.591 2.591 0 0 0-1.034 2.221l.075 1.35c.02.367-.143.72-.437.94l-1.564 1.173-3.39-4.517a1.74 1.74 0 0 0-1.526-.702 1.664 1.664 0 0 0-1.346.874l-6.162 11.467H.75a.75.75 0 0 0-.75.75v7.5c0 .414.336.75.75.75H6v6H.75a.75.75 0 0 0-.75.75v7.5c0 .414.336.75.75.75Zm41.133-43.35a.75.75 0 0 1 1.05.15l.417.556a.75.75 0 0 1-.15 1.05l-5.588 4.192-1.317-1.756 5.588-4.192ZM13.5 37.587H24v6H13.5v-6Zm6-7.5H30v6H19.5v-6Zm16.5 13.5H25.5v-6H36v6Zm6-7.5H31.5v-6H42v6Zm-6-7.5H25.5V24.22l7.677-1.633H36v6ZM25.84 10.33a.157.157 0 0 1 .136-.088h.015c.08.001.153.04.198.106l3.389 4.517-3.094 2.321a.75.75 0 0 0 .9 1.2l3.094-2.32 3.39 4.517a.243.243 0 0 1 .04.235.157.157 0 0 1-.122.106l-14.88 3.165a.244.244 0 0 1-.238-.102.24.24 0 0 1-.03-.257l7.201-13.4Zm-8.371 14.557c.4.55 1.085.811 1.75.669L24 24.539v4.048H13.5v-6h4.048l-.232.433a1.724 1.724 0 0 0 .153 1.867Zm-15.969.7H3a.75.75 0 1 0 0-1.5H1.5v-1.5H12v6H1.5v-3Zm6 4.5H18v6H7.5v-6Zm-6 7.5H12v6H1.5v-6Z"/><path d="M9.75 24.837a.75.75 0 0 0-.75-.75H6a.75.75 0 0 0 0 1.5h3a.75.75 0 0 0 .75-.75Z"/></g><defs><clipPath id="a"><path fill="#fff" d="M0 0h45v45H0z"/></clipPath></defs></svg>