<svg width="45" height="45" fill="none" xmlns="http://www.w3.org/2000/svg"><path d="M29.042 43.784a.608.608 0 0 1-.444-.192l-2.919-3.113a.608.608 0 0 1-.164-.416v-1.476a.607.607 0 0 1 .213-.463l1.034-.883-.951-1.01a.608.608 0 0 1-.013-.82l1.001-1.132-.844-.909a.608.608 0 0 1-.017-.81l.902-1.051-1.105-.913a.61.61 0 0 1-.221-.47v-3.653a7.629 7.629 0 1 1 6.7.106v13.337a.608.608 0 0 1-.13.376l-2.564 3.26a.607.607 0 0 1-.454.232h-.024Zm-2.31-3.962 2.27 2.421L31 39.706V26.181a.609.609 0 0 1 .38-.564 6.423 6.423 0 1 0-5.011-.085.608.608 0 0 1 .365.556v3.754l1.36 1.123a.607.607 0 0 1 .074.865l-.951 1.11.85.915a.608.608 0 0 1 .011.817l-.999 1.13 1.01 1.07a.608.608 0 0 1-.05.88l-1.306 1.116-.002.954Z" fill="#212D55"/><path d="M31.604 26.785a.608.608 0 0 1-.608-.604v-.007a.608.608 0 1 1 .608.611Zm-2.634-5.982a2.973 2.973 0 1 1 0-5.946 2.973 2.973 0 0 1 0 5.946Zm0-4.731a1.757 1.757 0 1 0 0 3.515 1.757 1.757 0 0 0 0-3.515Z" fill="#212D55"/><path d="M9.907 39.983a.608.608 0 0 1-.595-.48l-.904-4.172a.608.608 0 0 1 .074-.443l.765-1.267a.607.607 0 0 1 .422-.286l1.338-.22-.291-1.362a.608.608 0 0 1 .411-.707l1.438-.453-.251-1.216a.608.608 0 0 1 .405-.701l1.311-.432-.474-1.354a.607.607 0 0 1 .052-.514l1.88-3.132A7.633 7.633 0 0 1 25.905 12.66l.087.053c.075.046.147.09.22.139a.61.61 0 0 1-.215 1.103.608.608 0 0 1-.457-.09 4.468 4.468 0 0 0-.183-.111l-.089-.055a6.417 6.417 0 0 0-8.562 9.183.607.607 0 0 1 .024.662l-1.93 3.213.586 1.669a.607.607 0 0 1-.384.779l-1.385.456.253 1.222a.608.608 0 0 1-.412.703l-1.436.452.31 1.444a.609.609 0 0 1-.496.73l-1.693.28-.495.819.703 3.243 3.02-1.143 6.968-11.59a.604.604 0 0 1 .615-.287 6.352 6.352 0 0 0 3.831-.585.61.61 0 0 1 .882.502.61.61 0 0 1-.34.587 7.558 7.558 0 0 1-4.15.75l-6.871 11.433a.608.608 0 0 1-.304.255l-3.878 1.468a.595.595 0 0 1-.217.04Z" fill="#212D55"/><path d="M20.863 26.742a.608.608 0 0 1-.519-.921l.005-.007a.609.609 0 1 1 .815.849.616.616 0 0 1-.301.079Zm10.379-8.96a.608.608 0 0 1-.287-1.148 7.76 7.76 0 1 0-11.685-3.858.607.607 0 1 1-1.146.406 8.983 8.983 0 1 1 13.457 4.5c-.1.066-.218.1-.338.1Z" fill="#212D55"/></svg>