<svg width="45" height="45" fill="none" xmlns="http://www.w3.org/2000/svg"><path d="M31.066 38.969a.608.608 0 0 1-.608-.608V6.057l-7.707-3.234-6.472 2.547v32.99a.609.609 0 0 1-1.216 0V4.956a.608.608 0 0 1 .385-.566l7.087-2.79a.608.608 0 0 1 .458.004l8.308 3.487a.608.608 0 0 1 .373.56V38.36a.609.609 0 0 1-.608.608Z" fill="#212D55"/><path d="M22.756 38.969a.609.609 0 0 1-.608-.608V2.167a.608.608 0 0 1 1.217 0V38.36a.608.608 0 0 1-.608.608Zm18.127 0a.609.609 0 0 1-.608-.608V19.248l-5.946-3.46h-3.264a.609.609 0 0 1 0-1.216h3.428c.107 0 .212.029.304.083l6.39 3.718a.608.608 0 0 1 .305.525v19.46a.609.609 0 0 1-.609.61Z" fill="#212D55"/><path d="M34.495 38.969a.608.608 0 0 1-.608-.608V15.18a.608.608 0 0 1 1.216 0v23.18a.608.608 0 0 1-.608.608Zm-31.317 0a.608.608 0 0 1-.608-.608V19.42a.608.608 0 0 1 .608-.608H15.67a.608.608 0 0 1 0 1.216H3.787V38.36a.608.608 0 0 1-.609.608Z" fill="#212D55"/><path d="M6.53 22.365H5.236a.608.608 0 1 1 0-1.216h1.292a.608.608 0 0 1 0 1.216Zm3.543 0H8.78a.608.608 0 1 1 0-1.216h1.293a.608.608 0 0 1 0 1.216Zm3.542 0h-1.292a.608.608 0 1 1 0-1.216h1.292a.608.608 0 0 1 0 1.216ZM6.53 25.219H5.236a.608.608 0 1 1 0-1.216h1.292a.608.608 0 0 1 0 1.216Zm3.543 0H8.78a.608.608 0 1 1 0-1.216h1.293a.608.608 0 0 1 0 1.216Zm3.542 0h-1.292a.608.608 0 1 1 0-1.216h1.292a.608.608 0 0 1 0 1.216ZM6.53 28.072H5.236a.608.608 0 0 1 0-1.216h1.292a.608.608 0 0 1 0 1.216Zm3.543 0H8.78a.608.608 0 0 1 0-1.216h1.293a.608.608 0 0 1 0 1.216Zm3.542 0h-1.292a.608.608 0 0 1 0-1.216h1.292a.608.608 0 0 1 0 1.216ZM6.53 30.926H5.236a.608.608 0 1 1 0-1.216h1.292a.608.608 0 0 1 0 1.216Zm3.543 0H8.78a.608.608 0 1 1 0-1.216h1.293a.608.608 0 0 1 0 1.216Zm3.542 0h-1.292a.608.608 0 1 1 0-1.216h1.292a.608.608 0 0 1 0 1.216ZM6.53 33.78H5.236a.608.608 0 0 1 0-1.216h1.292a.608.608 0 0 1 0 1.216Zm3.543 0H8.78a.608.608 0 0 1 0-1.216h1.293a.608.608 0 0 1 0 1.216Zm3.542 0h-1.292a.608.608 0 0 1 0-1.216h1.292a.608.608 0 0 1 0 1.216ZM6.53 36.634H5.236a.608.608 0 1 1 0-1.217h1.292a.608.608 0 0 1 0 1.217Zm3.543 0H8.78a.608.608 0 1 1 0-1.217h1.293a.608.608 0 0 1 0 1.217Zm3.542 0h-1.292a.608.608 0 1 1 0-1.217h1.292a.608.608 0 0 1 0 1.217ZM20.616 8.12a.608.608 0 0 1-.608-.609V6.364a.608.608 0 0 1 1.216 0V7.51a.608.608 0 0 1-.608.608Zm-2.773.707a.608.608 0 0 1-.609-.608V7.07a.608.608 0 1 1 1.217 0v1.15a.608.608 0 0 1-.608.608Zm2.773 3.867a.608.608 0 0 1-.608-.608v-1.148a.608.608 0 0 1 1.216 0v1.148a.608.608 0 0 1-.608.608Zm-2.773.706a.608.608 0 0 1-.609-.607v-1.148a.608.608 0 1 1 1.217 0v1.148a.608.608 0 0 1-.608.608Zm2.773 3.87a.608.608 0 0 1-.608-.608v-1.15a.608.608 0 0 1 1.216 0v1.15a.608.608 0 0 1-.608.608Zm-2.773.705a.608.608 0 0 1-.609-.608v-1.148a.608.608 0 1 1 1.217 0v1.148a.608.608 0 0 1-.608.608Zm2.773 3.866a.608.608 0 0 1-.608-.608v-1.147a.609.609 0 0 1 1.216 0v1.147a.608.608 0 0 1-.608.608Zm-2.773.708a.608.608 0 0 1-.609-.608v-1.148a.608.608 0 1 1 1.217 0v1.148a.608.608 0 0 1-.608.608Zm2.773 3.867a.608.608 0 0 1-.608-.608V24.66a.608.608 0 0 1 1.216 0v1.148a.608.608 0 0 1-.608.608Zm-2.773.706a.608.608 0 0 1-.609-.608v-1.147a.608.608 0 1 1 1.217 0v1.146a.608.608 0 0 1-.608.609Zm2.773 3.868a.608.608 0 0 1-.608-.608v-1.148a.608.608 0 0 1 1.216 0v1.148a.608.608 0 0 1-.608.608Zm-2.773.707a.608.608 0 0 1-.609-.608V29.94a.608.608 0 1 1 1.217 0v1.148a.608.608 0 0 1-.608.608Zm2.773 3.866a.608.608 0 0 1-.608-.608v-1.144a.608.608 0 0 1 1.216 0v1.147a.608.608 0 0 1-.608.605Zm-2.773.708a.608.608 0 0 1-.609-.608v-1.148a.608.608 0 1 1 1.217 0v1.148a.608.608 0 0 1-.608.608ZM24.811 7.54a.608.608 0 0 1-.608-.608V5.786a.608.608 0 0 1 1.216 0v1.146a.608.608 0 0 1-.608.609Zm2.055.776a.608.608 0 0 1-.608-.608V6.56a.608.608 0 0 1 1.216 0v1.147a.608.608 0 0 1-.608.608Zm2.051.774a.608.608 0 0 1-.608-.608V7.336a.608.608 0 0 1 1.216 0v1.147a.608.608 0 0 1-.608.608Zm-4.106 3.011a.608.608 0 0 1-.608-.608v-1.15a.608.608 0 0 1 1.216 0v1.15a.608.608 0 0 1-.608.608Zm2.055.773a.608.608 0 0 1-.608-.609V11.12a.608.608 0 0 1 1.216 0v1.146a.608.608 0 0 1-.608.609Zm2.051.774a.608.608 0 0 1-.608-.608v-1.147a.608.608 0 0 1 1.216 0v1.148a.608.608 0 0 1-.608.607Zm-4.106 3.009a.609.609 0 0 1-.608-.608V14.9a.609.609 0 0 1 1.216 0v1.147a.608.608 0 0 1-.608.611Zm2.055.775a.608.608 0 0 1-.608-.608v-1.148a.608.608 0 0 1 1.216 0v1.148a.608.608 0 0 1-.608.608Zm2.051.774a.608.608 0 0 1-.608-.608v-1.147a.608.608 0 0 1 1.216 0V17.6a.608.608 0 0 1-.608.607Zm-4.106 3.009a.609.609 0 0 1-.608-.608v-1.148a.608.608 0 0 1 1.216 0v1.148a.608.608 0 0 1-.608.608Zm2.055.775a.608.608 0 0 1-.608-.608v-1.148a.608.608 0 0 1 1.216 0v1.148a.608.608 0 0 1-.608.608Zm2.051.775a.608.608 0 0 1-.608-.609V21.01a.608.608 0 0 1 1.216 0v1.147a.608.608 0 0 1-.608.609Zm-4.106 3.008a.609.609 0 0 1-.608-.608V24.02a.608.608 0 0 1 1.216 0v1.148a.608.608 0 0 1-.608.605Zm2.055.774a.608.608 0 0 1-.608-.608v-1.147a.609.609 0 0 1 1.216 0v1.147a.608.608 0 0 1-.608.608Zm2.051.775a.608.608 0 0 1-.608-.608v-1.147a.608.608 0 0 1 1.216 0v1.147a.609.609 0 0 1-.608.608Zm-4.106 3.008a.608.608 0 0 1-.608-.607v-1.148a.608.608 0 0 1 1.216 0v1.148a.608.608 0 0 1-.608.608Zm2.055.775a.608.608 0 0 1-.608-.608V29.35a.609.609 0 0 1 1.216 0v1.147a.608.608 0 0 1-.608.608Zm2.051.775a.608.608 0 0 1-.608-.608v-1.147a.608.608 0 0 1 1.216 0v1.147a.609.609 0 0 1-.608.608Zm-4.106 3.008a.609.609 0 0 1-.608-.608v-1.147a.608.608 0 0 1 1.216 0v1.147a.608.608 0 0 1-.608.608Zm2.055.775a.608.608 0 0 1-.608-.608v-1.148a.608.608 0 0 1 1.216 0v1.148a.608.608 0 0 1-.608.608Zm2.051.775a.608.608 0 0 1-.608-.608v-1.148a.608.608 0 0 1 1.216 0v1.148a.608.608 0 0 1-.608.608Zm7.691-15.975a.608.608 0 0 1-.608-.608v-.615a.609.609 0 0 1 1.216 0v.615a.608.608 0 0 1-.608.608Zm2.051 1.287a.608.608 0 0 1-.608-.607v-.615a.608.608 0 1 1 1.216 0v.615a.608.608 0 0 1-.608.608Zm-2.051 1.716a.608.608 0 0 1-.608-.608v-.615a.608.608 0 0 1 1.216 0v.615a.608.608 0 0 1-.608.608Zm2.051 1.288a.608.608 0 0 1-.608-.609v-.611a.608.608 0 1 1 1.216 0v.615a.608.608 0 0 1-.608.605Zm-2.051 1.716a.608.608 0 0 1-.608-.61v-.615a.608.608 0 0 1 1.216 0v.615a.608.608 0 0 1-.608.608Zm2.051 1.287a.608.608 0 0 1-.608-.608v-.615a.608.608 0 1 1 1.216 0v.615a.608.608 0 0 1-.608.608Zm-2.051 1.716a.608.608 0 0 1-.608-.609v-.614a.608.608 0 0 1 1.216 0v.614a.608.608 0 0 1-.608.608Zm2.051 1.287a.608.608 0 0 1-.608-.608v-.615a.608.608 0 1 1 1.216 0v.615a.608.608 0 0 1-.608.608Zm-2.051 1.713a.608.608 0 0 1-.608-.608v-.612a.608.608 0 0 1 1.216 0v.612a.608.608 0 0 1-.608.608Zm2.051 1.29a.608.608 0 0 1-.608-.608v-.614a.608.608 0 1 1 1.216 0v.614a.608.608 0 0 1-.608.608Zm-2.051 1.716A.608.608 0 0 1 36 34.87v-.615a.609.609 0 0 1 1.216 0v.615a.608.608 0 0 1-.608.608Zm2.051 1.287a.608.608 0 0 1-.608-.608v-.615a.608.608 0 1 1 1.216 0v.615a.608.608 0 0 1-.608.608Zm4.051 2.193H1.358a.608.608 0 0 1 0-1.216H42.71a.609.609 0 0 1 0 1.216Z" fill="#212D55"/></svg>