<svg width="45" height="45" fill="none" xmlns="http://www.w3.org/2000/svg"><path d="M.703 39.375h43.594a.702.702 0 0 0 .703-.703V24.61a2.818 2.818 0 0 0-2.815-2.814h-7.863a2.105 2.105 0 0 0-1.978-1.402h-2.799l-.014-.002a2.112 2.112 0 0 1-2.11-2.11v-7.736A4.928 4.928 0 0 0 22.5 5.625a4.928 4.928 0 0 0-4.922 4.922v7.736c0 1.163-.946 2.11-2.11 2.11l-.013.002h-2.799c-.914 0-1.685.588-1.978 1.402H2.815c-.007 0-.012.003-.019.003A2.815 2.815 0 0 0 0 24.611v14.061c0 .389.314.703.703.703Zm42.89-3.516H1.407v-5.626h42.188v5.626ZM1.407 37.97v-.703h42.188v.703H1.406Zm17.578-19.686v-7.736A3.52 3.52 0 0 1 22.5 7.03a3.52 3.52 0 0 1 3.516 3.516v7.736a3.518 3.518 0 0 0 3.488 3.513c.01 0 .017.006.027.006h2.813c.388 0 .703.315.703.703v3.513H11.953v-3.513c0-.388.315-.703.703-.703h2.813c.01 0 .017-.005.027-.006a3.518 3.518 0 0 0 3.488-3.513ZM2.812 23.205l.011-.002h7.724v3.518c0 .389.314.703.703.703h22.5a.702.702 0 0 0 .703-.703v-3.518h7.732a1.41 1.41 0 0 1 1.409 1.409v4.215H1.406V24.61c0-.775.631-1.406 1.407-1.406Z" fill="#212D55"/><path d="M22.5 12.656c1.163 0 2.11-.947 2.11-2.11 0-1.163-.947-2.11-2.11-2.11-1.163 0-2.11.947-2.11 2.11 0 1.163.947 2.11 2.11 2.11Zm0-2.813a.703.703 0 1 1 0 1.407.703.703 0 0 1 0-1.407Z" fill="#212D55"/></svg>