<svg width="45" height="45" fill="none" xmlns="http://www.w3.org/2000/svg"><path d="M42.89 35.86h-2.366l-11.65-24.671.514-1.797a3.515 3.515 0 0 0-2.618-4.398l-.828-.184A3.52 3.52 0 0 0 21.8 7.276l-1.738 6.083H18.65l-1.025-2.17.514-1.797a3.515 3.515 0 0 0-2.618-4.398l-.85-.189a3.526 3.526 0 0 0-4.135 2.436L1.433 39.183a.703.703 0 1 0 1.353.384l1.051-3.708h9.796l-.95 3.323a.703.703 0 0 0 1.353.386l4.522-15.828 7.525 15.935a.703.703 0 0 0 .636.403h16.172a.703.703 0 0 0 .703-.703v-2.813a.703.703 0 0 0-.703-.703ZM23.153 7.662a2.11 2.11 0 0 1 2.485-1.48l.828.184a2.11 2.11 0 0 1 1.57 2.638l-.44 1.542h-5.267l.824-2.884Zm-11.268-.024a2.116 2.116 0 0 1 2.48-1.461l.85.189a2.11 2.11 0 0 1 1.571 2.639l-.44 1.54h-5.32l.86-2.907ZM6.628 26.016l.798-2.813h9.823l-.804 2.813H6.628Zm9.416 1.406-.804 2.812H5.432l.797-2.812h9.815Zm-8.22-5.625.798-2.813h7.69l1.328 2.813H7.824Zm1.197-4.219.797-2.812h4.502l1.329 2.812H9.02ZM4.236 34.453l.797-2.812h9.805l-.803 2.812H4.236Zm26.702 4.219h-3.773l-11.763-24.91a.703.703 0 0 0-.636-.403h-4.55l.4-1.406h5.814l11.763 24.91a.703.703 0 0 0 .635.403h2.11v1.406Zm1.406 0v-2.11a.703.703 0 0 0-.703-.703h-2.367l-9.961-21.093h6.257l11.29 23.906h-4.516Zm9.844 0h-3.773l-11.763-24.91a.703.703 0 0 0-.636-.403h-4.492l.402-1.406h5.754l11.763 24.91a.703.703 0 0 0 .635.403h2.11v1.406Z" fill="#212D55"/></svg>